<svg xmlns="http://www.w3.org/2000/svg" version="1.1" xmlns:xlink="http://www.w3.org/1999/xlink" xmlns:svgjs="http://svgjs.dev/svgjs" width="1000" height="1000" viewBox="0 0 1000 1000"><g transform="matrix(1,0,0,1,-0.14221556886212738,-0.14221556886229791)"><svg viewBox="0 0 334 334" data-background-color="#c9efc7" preserveAspectRatio="xMidYMid meet" height="1000" width="1000" xmlns="http://www.w3.org/2000/svg" xmlns:xlink="http://www.w3.org/1999/xlink"><g id="tight-bounds" transform="matrix(1,0,0,1,0.04749999999998522,0.04750000000001364)"><svg viewBox="0 0 333.90454557049503 333.90454557049503" height="333.90454557049503" width="333.90454557049503"><g><svg></svg></g><g><svg viewBox="0 0 333.90454557049503 333.90454557049503" height="333.90454557049503" width="333.90454557049503"><g><path d="M0 166.952c0-92.205 74.747-166.952 166.952-166.952 92.205 0 166.952 74.747 166.953 166.952 0 92.205-74.747 166.952-166.953 166.953-92.205 0-166.952-74.747-166.952-166.953zM166.952 324.191c86.841 0 157.239-70.398 157.239-157.239 0-86.841-70.398-157.239-157.239-157.239-86.841 0-157.239 70.398-157.239 157.239 0 86.841 70.398 157.239 157.239 157.239z" data-fill-palette-color="tertiary" fill="#454545" stroke="transparent"></path><ellipse rx="160.27418187383762" ry="160.27418187383762" cx="166.95227278524752" cy="166.95227278524752" fill="#454545" stroke="transparent" stroke-width="0" fill-opacity="1" data-fill-palette-color="tertiary"></ellipse></g><g transform="matrix(1,0,0,1,125.14795331485361,71.17305217166896)"><svg viewBox="0 0 83.60863894078781 191.55844122715712" height="191.55844122715712" width="83.60863894078781"><g><svg viewBox="0 0 83.60863894078781 191.55844122715712" height="191.55844122715712" width="83.60863894078781"><g><svg viewBox="0 0 148.69833337267903 340.68753318804056" height="191.55844122715712" width="83.60863894078781"><g transform="matrix(1,0,0,1,0,149.12909196088341)"><svg viewBox="0 0 148.69833337267903 191.55844122715712" height="191.55844122715712" width="148.69833337267903"><g><svg viewBox="0 0 148.69833337267903 191.55844122715712" height="191.55844122715712" width="148.69833337267903"><g><svg viewBox="0 0 148.69833337267903 191.55844122715712" height="191.55844122715712" width="148.69833337267903"><g transform="matrix(1,0,0,1,0,0)"><svg width="148.69833337267903" viewBox="1.7000000476837158 -32.45000076293945 25.5 32.85000228881836" height="191.55844122715712" data-palette-color="#c9efc7"><path d="M17.8-32.45Q22.85-32.45 27.2-30.3L27.2-30.3 26.15-25.5 25.6-25.45Q23.15-26.9 21.15-27.53 19.15-28.15 16.95-28.15L16.95-28.15Q11.95-28.15 9.5-25.13 7.05-22.1 7.05-15.6L7.05-15.6Q7.05-9.4 9.35-6.63 11.65-3.85 16.65-3.85L16.65-3.85Q17.9-3.85 19.13-4.08 20.35-4.3 22.2-4.85L22.2-4.85 22.35-8.1 22.2-13.05 27.05-13.4 26.95-8.9 27.1-1.55Q20.9 0.4 16.35 0.4L16.35 0.4Q9 0.4 5.35-3.68 1.7-7.75 1.7-15.35L1.7-15.35Q1.7-23.65 5.88-28.05 10.05-32.45 17.8-32.45L17.8-32.45Z" opacity="1" transform="matrix(1,0,0,1,0,0)" fill="#c9efc7" class="undefined-text-0" data-fill-palette-color="quaternary" id="text-0"></path></svg></g></svg></g></svg></g></svg></g><g transform="matrix(1,0,0,1,28.401381674181692,0)"><svg viewBox="0 0 91.89557002431565 103.90674138974107" height="103.90674138974107" width="91.89557002431565"><g><svg xmlns="http://www.w3.org/2000/svg" xmlns:xlink="http://www.w3.org/1999/xlink" version="1.1" x="0" y="0" viewBox="10.208000183105469 5.006999969482422 79.58399963378906 89.98599243164062" enable-background="new 0 0 100 100" xml:space="preserve" height="103.90674138974107" width="91.89557002431565" class="icon-icon-0" data-fill-palette-color="quaternary" id="icon-0"><polyline points="88.181,94.993 88.181,91.525 89.336,89.318 87.856,87.092 89.792,78.624 86.084,72.899 86.084,66.288   88.502,58.95 86.567,54.757 88.986,52.258 87.938,45.082 83.503,48.146 83.503,50.807 78.988,45.727 71.166,45.082 49.719,46.13   42.301,43.227 36.011,36.777 34.801,36.777 29.238,25.649 31.898,22.907 33.519,18.382 30.435,18.442 27.867,20.73 31.657,11.538   34.882,9.603 39.397,9.039 48.033,11.367 41.333,6.216 34.237,5.007 27.867,7.345 26.104,9.423 25.609,11.78 24.292,12.889   24.024,15.56 22.533,17.374 22.061,20.73 20.609,22.101 20.609,23.956 11.336,30.326 10.932,32.795 10.208,33.793 10.611,35.647   11.901,36.051 12.627,37.663 14.885,38.47 15.046,43.872 16.134,43.469 19.239,49.032 20.207,44.194 21.255,45.001 22.061,43.227   22.384,38.55 23.432,38.792 25.447,41.776 26.496,52.983 25.609,64.19 34.72,71.448 36.979,79.674 36.171,94.993 41.01,94.993   40.534,89.741 42.349,88.411 41.251,85.155 42.783,75.722 43.751,73.867 43.751,68.626 56.895,71.69 62.862,71.287 71.005,69.835   79.956,75.319 82.777,80.479 85.036,91.768 84.2,94.993 " fill="#c9efc7" data-fill-palette-color="quaternary"></polyline></svg></g></svg></g><g></g></svg></g></svg></g></svg></g></svg></g><defs></defs></svg><rect width="333.90454557049503" height="333.90454557049503" fill="none" stroke="none" visibility="hidden"></rect></g></svg></g></svg>